<svg width="180" height="180" viewBox="0 0 180 180" fill="none" xmlns="http://www.w3.org/2000/svg">
<rect width="180" height="180" rx="90" fill="#F8F8FF" fill-opacity="0.15"/>
<path d="M90.6002 85.7625C90.2252 85.725 89.7752 85.725 89.3627 85.7625C80.4377 85.4625 73.3502 78.15 73.3502 69.15C73.3502 59.9625 80.7752 52.5 90.0002 52.5C99.1877 52.5 106.65 59.9625 106.65 69.15C106.613 78.15 99.5252 85.4625 90.6002 85.7625Z" stroke="#CCCCCC" stroke-width="5.625" stroke-linecap="round" stroke-linejoin="round"/>
<path d="M71.8499 99.6C62.7749 105.675 62.7749 115.575 71.8499 121.612C82.1624 128.512 99.0749 128.512 109.387 121.612C118.462 115.537 118.462 105.638 109.387 99.6C99.1124 92.7375 82.1999 92.7375 71.8499 99.6Z" stroke="#CCCCCC" stroke-width="5.625" stroke-linecap="round" stroke-linejoin="round"/>
</svg>
